<?xml version="1.0" encoding="utf-8"?>
<!-- Generator: Adobe Illustrator 17.0.0, SVG Export Plug-In . SVG Version: 6.00 Build 0)  -->
<!DOCTYPE svg PUBLIC "-//W3C//DTD SVG 1.1//EN" "http://www.w3.org/Graphics/SVG/1.1/DTD/svg11.dtd">
<svg version="1.1" xmlns="http://www.w3.org/2000/svg" xmlns:xlink="http://www.w3.org/1999/xlink" x="0px" y="0px" width="800px" height="350px" viewBox="0 0 800 350" enable-background="new 0 0 800 350" xml:space="preserve">
  <g id="Layer_1"></g>
  <g id="Layer_2">
    <rect x="49" y="60" fill="none" width="209.333" height="169.333" id="svg_1"></rect>
    <path
      fill="#FFFFFF"
      d="M372.488,255.337 C370.917,251.571 368.76,248.283 366.651,244.809 C363.311,239.306 354.661,244.328 358.016,249.856 C359.63,252.515 361.643,255.114 362.845,257.995 C363.894,260.50800000000004 366.115,262.279 368.996,261.48699999999997 C371.373,260.834 373.54,257.858 372.488,255.337 z"
      id="svg_2"></path>
    <rect x="250" y="35" fill="#A7A9AC" width="300" height="280" id="svg_48" stroke-dasharray="none" stroke="null"></rect>
    <rect x="560" y="35" fill="#A7A9AC" width="230" height="135" id="svg_49" stroke-dasharray="none" stroke="null"></rect>
    <rect x="560" y="180" fill="#A7A9AC" width="230" height="135" id="svg_50" stroke-dasharray="none" stroke="null"></rect>
    <rect x="10" y="35" fill="#A7A9AC" width="230" height="135" id="svg_51" stroke-dasharray="none" stroke="null"></rect>
    <rect x="10" y="180" fill="#A7A9AC" width="230" height="135" id="svg_52" stroke-dasharray="none" stroke="null"></rect>
  </g>
</svg>
