<?xml version="1.0" encoding="utf-8"?>
<!-- Generator: Adobe Illustrator 17.0.0, SVG Export Plug-In . SVG Version: 6.00 Build 0)  -->
<!DOCTYPE svg PUBLIC "-//W3C//DTD SVG 1.1//EN" "http://www.w3.org/Graphics/SVG/1.1/DTD/svg11.dtd">
<svg version="1.1" xmlns="http://www.w3.org/2000/svg" xmlns:xlink="http://www.w3.org/1999/xlink" x="0px" y="0px" width="800px"
	 height="600px" viewBox="0 0 800 600" enable-background="new 0 0 800 600" xml:space="preserve">
<g id="Layer_1">
</g>
<g id="Layer_2">
	<rect x="49" y="35" fill="none" width="209.333" height="169.333"/>
	<path fill="#FFFFFF" d="M372.488,230.337c-1.571-3.766-3.728-7.054-5.837-10.528c-3.34-5.503-11.99-0.481-8.635,5.047
		c1.614,2.659,3.627,5.258,4.829,8.139c1.049,2.513,3.27,4.284,6.151,3.492C371.373,235.834,373.54,232.858,372.488,230.337z"/>
	<rect x="20" y="20" fill="#A7A9AC" width="370" height="220"/>
	<rect x="410" y="20" fill="#A7A9AC" width="370" height="50"/>
	<rect x="410" y="95.333" fill="#A7A9AC" width="370" height="15"/>
	<rect x="410" y="122.5" fill="#A7A9AC" width="370" height="15"/>
	<rect x="410" y="149.833" fill="#A7A9AC" width="370" height="15"/>
	<rect x="410" y="177.839" fill="#A7A9AC" width="370" height="15"/>
	<rect x="439" y="35" fill="none" width="209.333" height="169.333"/>
	<rect x="19" y="372.5" fill="#A7A9AC" width="139.667" height="97.506"/>
	<rect x="169" y="372.5" fill="#A7A9AC" width="220" height="15"/>
	<rect x="169" y="399.667" fill="#A7A9AC" width="220" height="15"/>
	<rect x="169" y="427" fill="#A7A9AC" width="220" height="15"/>
	<rect x="169" y="455.006" fill="#A7A9AC" width="113.55" height="15"/>
	<rect x="19" y="261.5" fill="#A7A9AC" width="139.667" height="97.506"/>
	<rect x="169" y="261.5" fill="#A7A9AC" width="220" height="15"/>
	<rect x="169" y="288.667" fill="#A7A9AC" width="220" height="15"/>
	<rect x="169" y="316" fill="#A7A9AC" width="220" height="15"/>
	<rect x="169" y="344.006" fill="#A7A9AC" width="113.55" height="15"/>
	<rect x="19" y="483.5" fill="#A7A9AC" width="139.667" height="97.506"/>
	<rect x="169" y="483.5" fill="#A7A9AC" width="220" height="15"/>
	<rect x="169" y="510.667" fill="#A7A9AC" width="220" height="15"/>
	<rect x="169" y="538" fill="#A7A9AC" width="220" height="15"/>
	<rect x="169" y="566.006" fill="#A7A9AC" width="113.55" height="15"/>
	<rect x="409" y="372.5" fill="#A7A9AC" width="139.667" height="97.506"/>
	<rect x="559" y="372.5" fill="#A7A9AC" width="220" height="15"/>
	<rect x="559" y="399.667" fill="#A7A9AC" width="220" height="15"/>
	<rect x="559" y="427" fill="#A7A9AC" width="220" height="15"/>
	<rect x="559" y="455.006" fill="#A7A9AC" width="113.55" height="15"/>
	<rect x="409" y="261.5" fill="#A7A9AC" width="139.667" height="97.506"/>
	<rect x="559" y="261.5" fill="#A7A9AC" width="220" height="15"/>
	<rect x="559" y="288.667" fill="#A7A9AC" width="220" height="15"/>
	<rect x="559" y="316" fill="#A7A9AC" width="220" height="15"/>
	<rect x="559" y="344.006" fill="#A7A9AC" width="113.55" height="15"/>
	<rect x="409" y="483.5" fill="#A7A9AC" width="139.667" height="97.506"/>
	<rect x="559" y="483.5" fill="#A7A9AC" width="220" height="15"/>
	<rect x="559" y="510.667" fill="#A7A9AC" width="220" height="15"/>
	<rect x="559" y="538" fill="#A7A9AC" width="220" height="15"/>
	<rect x="559" y="566.006" fill="#A7A9AC" width="113.55" height="15"/>
	<rect x="410" y="206.839" fill="#A7A9AC" width="185" height="15"/>
</g>
</svg>
