<?xml version="1.0" encoding="utf-8"?>
<!-- Generator: Adobe Illustrator 17.0.0, SVG Export Plug-In . SVG Version: 6.00 Build 0)  -->
<!DOCTYPE svg PUBLIC "-//W3C//DTD SVG 1.1//EN" "http://www.w3.org/Graphics/SVG/1.1/DTD/svg11.dtd">
<svg version="1.1" xmlns="http://www.w3.org/2000/svg" xmlns:xlink="http://www.w3.org/1999/xlink" x="0px" y="0px" width="800px"
	 height="600px" viewBox="0 0 800 600" enable-background="new 0 0 800 600" xml:space="preserve">
<g id="Layer_1">
</g>
<g id="Layer_2">
	<rect x="49" y="35" fill="none" width="209.333" height="169.333"/>
	<path fill="#FFFFFF" d="M372.488,230.337c-1.571-3.766-3.728-7.054-5.837-10.528c-3.34-5.503-11.99-0.481-8.635,5.047
		c1.614,2.659,3.627,5.258,4.829,8.139c1.049,2.513,3.27,4.284,6.151,3.492C371.373,235.834,373.54,232.858,372.488,230.337z"/>
	<rect x="20" y="20" fill="#A7A9AC" width="370" height="220"/>
	<rect x="20" y="265" fill="#A7A9AC" width="370" height="50"/>
	<rect x="20" y="340.333" fill="#A7A9AC" width="370" height="15"/>
	<rect x="410" y="20.5" fill="#A7A9AC" width="139.667" height="97.506"/>
	<rect x="20" y="367.5" fill="#A7A9AC" width="370" height="15"/>
	<rect x="20" y="394.833" fill="#A7A9AC" width="370" height="15"/>
	<rect x="20" y="422.839" fill="#A7A9AC" width="185" height="15"/>
	<rect x="20" y="459.641" fill="#A7A9AC" width="370" height="15"/>
	<rect x="20" y="486.808" fill="#A7A9AC" width="370" height="15"/>
	<rect x="20" y="514.141" fill="#A7A9AC" width="370" height="15"/>
	<rect x="20" y="542.147" fill="#A7A9AC" width="185" height="15"/>
	<rect x="560" y="20.5" fill="#A7A9AC" width="220" height="15"/>
	<rect x="560" y="47.667" fill="#A7A9AC" width="220" height="15"/>
	<rect x="560" y="75" fill="#A7A9AC" width="220" height="15"/>
	<rect x="560" y="103.006" fill="#A7A9AC" width="113.55" height="15"/>
	<rect x="410" y="131.5" fill="#A7A9AC" width="139.667" height="97.506"/>
	<rect x="560" y="131.5" fill="#A7A9AC" width="220" height="15"/>
	<rect x="560" y="158.667" fill="#A7A9AC" width="220" height="15"/>
	<rect x="560" y="186" fill="#A7A9AC" width="220" height="15"/>
	<rect x="560" y="214.006" fill="#A7A9AC" width="113.55" height="15"/>
	<rect x="410" y="242.5" fill="#A7A9AC" width="139.667" height="97.506"/>
	<rect x="560" y="242.5" fill="#A7A9AC" width="220" height="15"/>
	<rect x="560" y="269.667" fill="#A7A9AC" width="220" height="15"/>
	<rect x="560" y="297" fill="#A7A9AC" width="220" height="15"/>
	<rect x="560" y="325.006" fill="#A7A9AC" width="113.55" height="15"/>
	<rect x="410" y="353.5" fill="#A7A9AC" width="139.667" height="97.506"/>
	<rect x="560" y="353.5" fill="#A7A9AC" width="220" height="15"/>
	<rect x="560" y="380.667" fill="#A7A9AC" width="220" height="15"/>
	<rect x="560" y="408" fill="#A7A9AC" width="220" height="15"/>
	<rect x="560" y="436.006" fill="#A7A9AC" width="113.55" height="15"/>
	<rect x="410" y="464.5" fill="#A7A9AC" width="139.667" height="97.506"/>
	<rect x="560" y="464.5" fill="#A7A9AC" width="220" height="15"/>
	<rect x="560" y="491.667" fill="#A7A9AC" width="220" height="15"/>
	<rect x="560" y="519" fill="#A7A9AC" width="220" height="15"/>
	<rect x="560" y="547.006" fill="#A7A9AC" width="113.55" height="15"/>
</g>
</svg>
